<mxfile host="app.diagrams.net" modified="2024-06-12T13:10:25.182Z" agent="Mozilla/5.0 (Windows NT 10.0; Win64; x64; rv:127.0) Gecko/20100101 Firefox/127.0" etag="v5DKCTLhkAWRLCBSz6ip" version="24.5.3" type="device">
  <diagram name="Page-1" id="9f46799a-70d6-7492-0946-bef42562c5a5">
    <mxGraphModel dx="2074" dy="1105" grid="1" gridSize="10" guides="1" tooltips="1" connect="1" arrows="1" fold="1" page="1" pageScale="1" pageWidth="827" pageHeight="1169" background="none" math="0" shadow="0">
      <root>
        <mxCell id="0" />
        <mxCell id="1" parent="0" />
        <mxCell id="78961159f06e98e8-17" value="TechnologyPage" style="swimlane;html=1;fontStyle=1;align=center;verticalAlign=top;childLayout=stackLayout;horizontal=1;startSize=30;horizontalStack=0;resizeParent=1;resizeLast=0;collapsible=1;marginBottom=0;swimlaneFillColor=#ffffff;rounded=0;shadow=0;comic=0;labelBackgroundColor=none;strokeWidth=1;fillColor=none;fontFamily=Verdana;fontSize=16;" parent="1" vertex="1">
          <mxGeometry width="350" height="570" as="geometry" />
        </mxCell>
        <mxCell id="78961159f06e98e8-21" value="+ TextEditingController: _controller" style="text;html=1;strokeColor=none;fillColor=none;align=left;verticalAlign=top;spacingLeft=4;spacingRight=4;whiteSpace=wrap;overflow=hidden;rotatable=0;points=[[0,0.5],[1,0.5]];portConstraint=eastwest;fontSize=16;" parent="78961159f06e98e8-17" vertex="1">
          <mxGeometry y="30" width="350" height="26" as="geometry" />
        </mxCell>
        <mxCell id="78961159f06e98e8-23" value="+ List&amp;lt;Message&amp;gt;: appData" style="text;html=1;strokeColor=none;fillColor=none;align=left;verticalAlign=top;spacingLeft=4;spacingRight=4;whiteSpace=wrap;overflow=hidden;rotatable=0;points=[[0,0.5],[1,0.5]];portConstraint=eastwest;fontSize=16;" parent="78961159f06e98e8-17" vertex="1">
          <mxGeometry y="56" width="350" height="26" as="geometry" />
        </mxCell>
        <mxCell id="78961159f06e98e8-25" value="+ boolean: isConnected" style="text;html=1;strokeColor=none;fillColor=none;align=left;verticalAlign=top;spacingLeft=4;spacingRight=4;whiteSpace=wrap;overflow=hidden;rotatable=0;points=[[0,0.5],[1,0.5]];portConstraint=eastwest;fontSize=16;" parent="78961159f06e98e8-17" vertex="1">
          <mxGeometry y="82" width="350" height="26" as="geometry" />
        </mxCell>
        <mxCell id="78961159f06e98e8-24" value="+ MethodChannel: platform" style="text;html=1;strokeColor=none;fillColor=none;align=left;verticalAlign=top;spacingLeft=4;spacingRight=4;whiteSpace=wrap;overflow=hidden;rotatable=0;points=[[0,0.5],[1,0.5]];portConstraint=eastwest;fontSize=16;" parent="78961159f06e98e8-17" vertex="1">
          <mxGeometry y="108" width="350" height="26" as="geometry" />
        </mxCell>
        <mxCell id="UNojYpmOz_3RAnkYFfNl-1" value="+ EventChannel: activityStream" style="text;html=1;strokeColor=none;fillColor=none;align=left;verticalAlign=top;spacingLeft=4;spacingRight=4;whiteSpace=wrap;overflow=hidden;rotatable=0;points=[[0,0.5],[1,0.5]];portConstraint=eastwest;fontSize=16;" vertex="1" parent="78961159f06e98e8-17">
          <mxGeometry y="134" width="350" height="26" as="geometry" />
        </mxCell>
        <mxCell id="hkoj9aHzZxKgA8rAzTYM-2" value="+ bool: locationEnabled" style="text;html=1;strokeColor=none;fillColor=none;align=left;verticalAlign=top;spacingLeft=4;spacingRight=4;whiteSpace=wrap;overflow=hidden;rotatable=0;points=[[0,0.5],[1,0.5]];portConstraint=eastwest;fontSize=16;" parent="78961159f06e98e8-17" vertex="1">
          <mxGeometry y="160" width="350" height="26" as="geometry" />
        </mxCell>
        <mxCell id="hkoj9aHzZxKgA8rAzTYM-3" value="+ DateTime?: pageOpenTime" style="text;html=1;strokeColor=none;fillColor=none;align=left;verticalAlign=top;spacingLeft=4;spacingRight=4;whiteSpace=wrap;overflow=hidden;rotatable=0;points=[[0,0.5],[1,0.5]];portConstraint=eastwest;fontSize=16;" parent="78961159f06e98e8-17" vertex="1">
          <mxGeometry y="186" width="350" height="26" as="geometry" />
        </mxCell>
        <mxCell id="hkoj9aHzZxKgA8rAzTYM-4" value="+ DateTime?: firstConnectionTime" style="text;html=1;strokeColor=none;fillColor=none;align=left;verticalAlign=top;spacingLeft=4;spacingRight=4;whiteSpace=wrap;overflow=hidden;rotatable=0;points=[[0,0.5],[1,0.5]];portConstraint=eastwest;fontSize=16;" parent="78961159f06e98e8-17" vertex="1">
          <mxGeometry y="212" width="350" height="26" as="geometry" />
        </mxCell>
        <mxCell id="hkoj9aHzZxKgA8rAzTYM-6" value="+ bool: automatedMessages" style="text;html=1;strokeColor=none;fillColor=none;align=left;verticalAlign=top;spacingLeft=4;spacingRight=4;whiteSpace=wrap;overflow=hidden;rotatable=0;points=[[0,0.5],[1,0.5]];portConstraint=eastwest;fontSize=16;" parent="78961159f06e98e8-17" vertex="1">
          <mxGeometry y="238" width="350" height="26" as="geometry" />
        </mxCell>
        <mxCell id="hkoj9aHzZxKgA8rAzTYM-5" value="+ Timer?: automatedMessageTimer" style="text;html=1;strokeColor=none;fillColor=none;align=left;verticalAlign=top;spacingLeft=4;spacingRight=4;whiteSpace=wrap;overflow=hidden;rotatable=0;points=[[0,0.5],[1,0.5]];portConstraint=eastwest;fontSize=16;" parent="78961159f06e98e8-17" vertex="1">
          <mxGeometry y="264" width="350" height="26" as="geometry" />
        </mxCell>
        <mxCell id="78961159f06e98e8-26" value="+ bool: showStatistics" style="text;html=1;strokeColor=none;fillColor=none;align=left;verticalAlign=top;spacingLeft=4;spacingRight=4;whiteSpace=wrap;overflow=hidden;rotatable=0;points=[[0,0.5],[1,0.5]];portConstraint=eastwest;fontSize=16;" parent="78961159f06e98e8-17" vertex="1">
          <mxGeometry y="290" width="350" height="30" as="geometry" />
        </mxCell>
        <mxCell id="78961159f06e98e8-19" value="" style="line;html=1;strokeWidth=1;fillColor=none;align=left;verticalAlign=middle;spacingTop=-1;spacingLeft=3;spacingRight=3;rotatable=0;labelPosition=right;points=[];portConstraint=eastwest;fontSize=16;" parent="78961159f06e98e8-17" vertex="1">
          <mxGeometry y="320" width="350" height="8" as="geometry" />
        </mxCell>
        <mxCell id="78961159f06e98e8-20" value="+ initState(): void" style="text;html=1;strokeColor=none;fillColor=none;align=left;verticalAlign=top;spacingLeft=4;spacingRight=4;whiteSpace=wrap;overflow=hidden;rotatable=0;points=[[0,0.5],[1,0.5]];portConstraint=eastwest;fontSize=16;" parent="78961159f06e98e8-17" vertex="1">
          <mxGeometry y="328" width="350" height="26" as="geometry" />
        </mxCell>
        <mxCell id="78961159f06e98e8-27" value="+ dispose(): void" style="text;html=1;strokeColor=none;fillColor=none;align=left;verticalAlign=top;spacingLeft=4;spacingRight=4;whiteSpace=wrap;overflow=hidden;rotatable=0;points=[[0,0.5],[1,0.5]];portConstraint=eastwest;fontSize=16;" parent="78961159f06e98e8-17" vertex="1">
          <mxGeometry y="354" width="350" height="26" as="geometry" />
        </mxCell>
        <mxCell id="hkoj9aHzZxKgA8rAzTYM-7" value="+ createMessage(): Future&amp;lt;void&amp;gt;" style="text;html=1;strokeColor=none;fillColor=none;align=left;verticalAlign=top;spacingLeft=4;spacingRight=4;whiteSpace=wrap;overflow=hidden;rotatable=0;points=[[0,0.5],[1,0.5]];portConstraint=eastwest;fontSize=16;" parent="78961159f06e98e8-17" vertex="1">
          <mxGeometry y="380" width="350" height="26" as="geometry" />
        </mxCell>
        <mxCell id="hkoj9aHzZxKgA8rAzTYM-8" value="+ addMessage(): void" style="text;html=1;strokeColor=none;fillColor=none;align=left;verticalAlign=top;spacingLeft=4;spacingRight=4;whiteSpace=wrap;overflow=hidden;rotatable=0;points=[[0,0.5],[1,0.5]];portConstraint=eastwest;fontSize=16;" parent="78961159f06e98e8-17" vertex="1">
          <mxGeometry y="406" width="350" height="26" as="geometry" />
        </mxCell>
        <mxCell id="hkoj9aHzZxKgA8rAzTYM-9" value="+ _toggleLocation(): void" style="text;html=1;strokeColor=none;fillColor=none;align=left;verticalAlign=top;spacingLeft=4;spacingRight=4;whiteSpace=wrap;overflow=hidden;rotatable=0;points=[[0,0.5],[1,0.5]];portConstraint=eastwest;fontSize=16;" parent="78961159f06e98e8-17" vertex="1">
          <mxGeometry y="432" width="350" height="26" as="geometry" />
        </mxCell>
        <mxCell id="hkoj9aHzZxKgA8rAzTYM-10" value="+ _updateLocationStatus(): void" style="text;html=1;strokeColor=none;fillColor=none;align=left;verticalAlign=top;spacingLeft=4;spacingRight=4;whiteSpace=wrap;overflow=hidden;rotatable=0;points=[[0,0.5],[1,0.5]];portConstraint=eastwest;fontSize=16;" parent="78961159f06e98e8-17" vertex="1">
          <mxGeometry y="458" width="350" height="26" as="geometry" />
        </mxCell>
        <mxCell id="hkoj9aHzZxKgA8rAzTYM-11" value="+ _toggleAutomaticMessages(): void" style="text;html=1;strokeColor=none;fillColor=none;align=left;verticalAlign=top;spacingLeft=4;spacingRight=4;whiteSpace=wrap;overflow=hidden;rotatable=0;points=[[0,0.5],[1,0.5]];portConstraint=eastwest;fontSize=16;" parent="78961159f06e98e8-17" vertex="1">
          <mxGeometry y="484" width="350" height="26" as="geometry" />
        </mxCell>
        <mxCell id="hkoj9aHzZxKgA8rAzTYM-12" value="+ _toggleStatistics(): void" style="text;html=1;strokeColor=none;fillColor=none;align=left;verticalAlign=top;spacingLeft=4;spacingRight=4;whiteSpace=wrap;overflow=hidden;rotatable=0;points=[[0,0.5],[1,0.5]];portConstraint=eastwest;fontSize=16;" parent="78961159f06e98e8-17" vertex="1">
          <mxGeometry y="510" width="350" height="26" as="geometry" />
        </mxCell>
        <mxCell id="hkoj9aHzZxKgA8rAzTYM-13" value="+ build(BuildContext): Widget" style="text;html=1;strokeColor=none;fillColor=none;align=left;verticalAlign=top;spacingLeft=4;spacingRight=4;whiteSpace=wrap;overflow=hidden;rotatable=0;points=[[0,0.5],[1,0.5]];portConstraint=eastwest;fontSize=16;" parent="78961159f06e98e8-17" vertex="1">
          <mxGeometry y="536" width="350" height="34" as="geometry" />
        </mxCell>
      </root>
    </mxGraphModel>
  </diagram>
</mxfile>
